<?xml version="1.0" encoding="UTF-8" standalone="no"?>
<!DOCTYPE svg PUBLIC "-//W3C//DTD SVG 1.1//EN"
 "http://www.w3.org/Graphics/SVG/1.1/DTD/svg11.dtd">
<!-- Generated by graphviz version 13.1.0 (20250701.0955)
 -->
<!-- Title: EnterpriseAzureArch Pages: 1 -->
<svg width="1865pt" height="1015pt"
 viewBox="0.00 0.00 1865.00 1015.00" xmlns="http://www.w3.org/2000/svg" xmlns:xlink="http://www.w3.org/1999/xlink">
<g id="graph0" class="graph" transform="scale(1 1) rotate(0) translate(4 1010.9)">
<title>EnterpriseAzureArch</title>
<polygon fill="white" stroke="none" points="-4,4 -4,-1010.9 1861,-1010.9 1861,4 -4,4"/>
<text xml:space="preserve" text-anchor="middle" x="928.5" y="-991.5" font-family="Segoe UI" font-size="12.00">Azure Enterprise Architecture</text>
<text xml:space="preserve" text-anchor="middle" x="928.5" y="-974.25" font-family="Segoe UI" font-size="12.00">(Region: East US 2)</text>
<g id="clust1" class="cluster">
<title>cluster_identity</title>
<polygon fill="#fff4f4" stroke="black" points="8,-591.09 8,-721.46 589,-721.46 589,-591.09 8,-591.09"/>
<text xml:space="preserve" text-anchor="middle" x="298.5" y="-600.94" font-family="Segoe UI" font-size="12.00">Identity &amp; Security</text>
</g>
<g id="clust2" class="cluster">
<title>cluster_network</title>
<path fill="#f3f2f1" stroke="black" d="M609,-187.8C609,-187.8 1110,-187.8 1110,-187.8 1116,-187.8 1122,-193.8 1122,-199.8 1122,-199.8 1122,-812.77 1122,-812.77 1122,-818.77 1116,-824.77 1110,-824.77 1110,-824.77 609,-824.77 609,-824.77 603,-824.77 597,-818.77 597,-812.77 597,-812.77 597,-199.8 597,-199.8 597,-193.8 603,-187.8 609,-187.8"/>
<text xml:space="preserve" text-anchor="middle" x="859.5" y="-809.37" font-family="Segoe UI" font-size="12.00">Network Infrastructure</text>
</g>
<g id="clust3" class="cluster">
<title>cluster_hub</title>
<path fill="#f3f2f1" stroke="black" d="M635,-641.59C635,-641.59 1027,-641.59 1027,-641.59 1033,-641.59 1039,-647.59 1039,-653.59 1039,-653.59 1039,-779.52 1039,-779.52 1039,-785.52 1033,-791.52 1027,-791.52 1027,-791.52 635,-791.52 635,-791.52 629,-791.52 623,-785.52 623,-779.52 623,-779.52 623,-653.59 623,-653.59 623,-647.59 629,-641.59 635,-641.59"/>
<text xml:space="preserve" text-anchor="middle" x="831" y="-776.12" font-family="Segoe UI" font-size="12.00">Hub VNet (10.1.0.0/16)</text>
</g>
<g id="clust4" class="cluster">
<title>cluster_shared_services</title>
<path fill="#f3f2f1" stroke="black" d="M643,-655.27C643,-655.27 836,-655.27 836,-655.27 842,-655.27 848,-661.27 848,-667.27 848,-667.27 848,-746.27 848,-746.27 848,-752.27 842,-758.27 836,-758.27 836,-758.27 643,-758.27 643,-758.27 637,-758.27 631,-752.27 631,-746.27 631,-746.27 631,-667.27 631,-667.27 631,-661.27 637,-655.27 643,-655.27"/>
<text xml:space="preserve" text-anchor="middle" x="739.5" y="-742.87" font-family="Segoe UI" font-size="12.00">Shared Services</text>
</g>
<g id="clust5" class="cluster">
<title>cluster_spoke1</title>
<path fill="#f3f2f1" stroke="black" d="M617,-195.8C617,-195.8 1102,-195.8 1102,-195.8 1108,-195.8 1114,-201.8 1114,-207.8 1114,-207.8 1114,-518.59 1114,-518.59 1114,-524.59 1108,-530.59 1102,-530.59 1102,-530.59 617,-530.59 617,-530.59 611,-530.59 605,-524.59 605,-518.59 605,-518.59 605,-207.8 605,-207.8 605,-201.8 611,-195.8 617,-195.8"/>
<text xml:space="preserve" text-anchor="middle" x="859.5" y="-515.19" font-family="Segoe UI" font-size="12.00">Spoke 1 (10.2.0.0/16)</text>
</g>
<g id="clust6" class="cluster">
<title>cluster_app_tier</title>
<path fill="#f3f2f1" stroke="black" d="M625,-394.34C625,-394.34 1094,-394.34 1094,-394.34 1100,-394.34 1106,-400.34 1106,-406.34 1106,-406.34 1106,-485.34 1106,-485.34 1106,-491.34 1100,-497.34 1094,-497.34 1094,-497.34 625,-497.34 625,-497.34 619,-497.34 613,-491.34 613,-485.34 613,-485.34 613,-406.34 613,-406.34 613,-400.34 619,-394.34 625,-394.34"/>
<text xml:space="preserve" text-anchor="middle" x="859.5" y="-481.94" font-family="Segoe UI" font-size="12.00">App Subnet (10.2.1.0/24)</text>
</g>
<g id="clust7" class="cluster">
<title>cluster_data_tier</title>
<path fill="#f3f2f1" stroke="black" d="M647,-203.8C647,-203.8 771,-203.8 771,-203.8 777,-203.8 783,-209.8 783,-215.8 783,-215.8 783,-328.09 783,-328.09 783,-334.09 777,-340.09 771,-340.09 771,-340.09 647,-340.09 647,-340.09 641,-340.09 635,-334.09 635,-328.09 635,-328.09 635,-215.8 635,-215.8 635,-209.8 641,-203.8 647,-203.8"/>
<text xml:space="preserve" text-anchor="middle" x="709" y="-324.69" font-family="Segoe UI" font-size="12.00">Data Subnet (10.2.2.0/24)</text>
</g>
<g id="clust8" class="cluster">
<title>cluster_global</title>
<polygon fill="#e5f6ff" stroke="black" points="666,-8 666,-138.3 1184,-138.3 1184,-8 666,-8"/>
<text xml:space="preserve" text-anchor="middle" x="925" y="-122.9" font-family="Segoe UI" font-size="12.00">Global Services</text>
</g>
<g id="clust9" class="cluster">
<title>cluster_data</title>
<polygon fill="none" stroke="black" points="1130,-203.8 1130,-340.09 1554,-340.09 1554,-203.8 1130,-203.8"/>
<text xml:space="preserve" text-anchor="middle" x="1342" y="-324.69" font-family="Segoe UI" font-size="12.00">Data Services</text>
</g>
<g id="clust10" class="cluster">
<title>cluster_containers</title>
<polygon fill="none" stroke="black" points="1205,-378.34 1205,-563.84 1849,-563.84 1849,-378.34 1205,-378.34"/>
<text xml:space="preserve" text-anchor="middle" x="1527" y="-548.44" font-family="Segoe UI" font-size="12.00">Container Platform</text>
</g>
<g id="clust11" class="cluster">
<title>cluster_aks</title>
<polygon fill="none" stroke="black" points="1213,-386.34 1213,-530.59 1699,-530.59 1699,-386.34 1213,-386.34"/>
<text xml:space="preserve" text-anchor="middle" x="1456" y="-515.19" font-family="Segoe UI" font-size="12.00">AKS Cluster</text>
</g>
<g id="clust12" class="cluster">
<title>cluster_system_nodes</title>
<polygon fill="none" stroke="black" points="1221,-394.34 1221,-497.34 1411,-497.34 1411,-394.34 1221,-394.34"/>
<text xml:space="preserve" text-anchor="middle" x="1316" y="-481.94" font-family="Segoe UI" font-size="12.00">System Pool</text>
</g>
<g id="clust13" class="cluster">
<title>cluster_app_nodes</title>
<polygon fill="none" stroke="black" points="1453,-394.59 1453,-497.09 1691,-497.09 1691,-394.59 1453,-394.59"/>
<text xml:space="preserve" text-anchor="middle" x="1572" y="-481.69" font-family="Segoe UI" font-size="12.00">App Pool (Spot)</text>
</g>
<g id="clust15" class="cluster">
<title>cluster_legend</title>
<polygon fill="none" stroke="black" stroke-dasharray="5,2" points="1202,-655.52 1202,-758.02 1777,-758.02 1777,-655.52 1202,-655.52"/>
<text xml:space="preserve" text-anchor="middle" x="1489.5" y="-742.62" font-family="Segoe UI" font-size="12.00">Legend</text>
</g>
<!-- AAD -->
<g id="node1" class="node">
<title>AAD</title>
<ellipse fill="#0078d4" stroke="black" stroke-width="1.5" cx="98" cy="-681.52" rx="81.85" ry="25.81"/>
<text xml:space="preserve" text-anchor="middle" x="98" y="-686.27" font-family="Segoe UI" font-size="10.00" fill="white">Azure Active Directory</text>
<text xml:space="preserve" text-anchor="middle" x="98" y="-672.02" font-family="Segoe UI" font-size="10.00" fill="white">(Premium P2)</text>
</g>
<!-- KeyVault -->
<g id="node2" class="node">
<title>KeyVault</title>
<polygon fill="#d83b01" stroke="black" stroke-width="1.5" points="358.46,-669.95 358.46,-693.09 323.05,-709.46 272.95,-709.46 237.54,-693.09 237.54,-669.95 272.95,-653.59 323.05,-653.59 358.46,-669.95"/>
<text xml:space="preserve" text-anchor="middle" x="298" y="-686.27" font-family="Segoe UI" font-size="10.00" fill="white">Key Vault</text>
<text xml:space="preserve" text-anchor="middle" x="298" y="-672.02" font-family="Segoe UI" font-size="10.00" fill="white">(HSM&#45;backed)</text>
</g>
<!-- Defender -->
<g id="node3" class="node">
<title>Defender</title>
<polygon fill="#d83b01" stroke="black" stroke-width="1.5" points="577.26,-669.95 577.26,-693.09 531.42,-709.46 466.58,-709.46 420.74,-693.09 420.74,-669.95 466.58,-653.59 531.42,-653.59 577.26,-669.95"/>
<polygon fill="none" stroke="black" stroke-width="1.5" points="581.26,-667.13 581.26,-695.91 532.11,-713.46 465.89,-713.46 416.74,-695.91 416.74,-667.13 465.89,-649.59 532.11,-649.59 581.26,-667.13"/>
<text xml:space="preserve" text-anchor="middle" x="499" y="-686.27" font-family="Segoe UI" font-size="10.00" fill="white">Defender for Cloud</text>
<text xml:space="preserve" text-anchor="middle" x="499" y="-672.02" font-family="Segoe UI" font-size="10.00" fill="white">(CSPM)</text>
</g>
<!-- Firewall -->
<g id="node4" class="node">
<title>Firewall</title>
<polygon fill="#f3f2f1" stroke="black" stroke-width="1.5" points="1026.76,-669.95 1026.76,-693.09 990,-709.46 938,-709.46 901.24,-693.09 901.24,-669.95 938,-653.59 990,-653.59 1026.76,-669.95"/>
<polygon fill="none" stroke="black" stroke-width="1.5" points="1030.76,-667.35 1030.76,-695.69 990.85,-713.46 937.15,-713.46 897.24,-695.69 897.24,-667.35 937.15,-649.59 990.85,-649.59 1030.76,-667.35"/>
<text xml:space="preserve" text-anchor="middle" x="964" y="-686.27" font-family="Segoe UI" font-size="10.00">Azure Firewall</text>
<text xml:space="preserve" text-anchor="middle" x="964" y="-672.02" font-family="Segoe UI" font-size="10.00">(Premium SKU)</text>
</g>
<!-- Defender&#45;&gt;Firewall -->
<g id="edge7" class="edge">
<title>Defender&#45;&gt;Firewall</title>
<path fill="none" stroke="#d83b01" stroke-width="1.2" stroke-dasharray="5,2" d="M566.12,-661C566.12,-661 898.13,-661 898.13,-661"/>
<polygon fill="#d83b01" stroke="#d83b01" stroke-width="1.2" points="898.13,-664.5 908.13,-661 898.13,-657.5 898.13,-664.5"/>
<text xml:space="preserve" text-anchor="middle" x="739" y="-836.42" font-family="Segoe UI" font-size="8.00">Security Policies</text>
</g>
<!-- AppService -->
<g id="node7" class="node">
<title>AppService</title>
<polygon fill="#0078d4" stroke="black" stroke-width="1.5" points="810.38,-438.84 743.62,-438.84 739.62,-434.84 739.62,-402.34 806.38,-402.34 810.38,-406.34 810.38,-438.84"/>
<polyline fill="none" stroke="black" stroke-width="1.5" points="806.38,-434.84 739.62,-434.84"/>
<polyline fill="none" stroke="black" stroke-width="1.5" points="806.38,-434.84 806.38,-402.34"/>
<polyline fill="none" stroke="black" stroke-width="1.5" points="806.38,-434.84 810.38,-438.84"/>
<text xml:space="preserve" text-anchor="middle" x="775" y="-425.34" font-family="Segoe UI" font-size="10.00" fill="white">App Service</text>
<text xml:space="preserve" text-anchor="middle" x="775" y="-411.09" font-family="Segoe UI" font-size="10.00" fill="white">(Isolated v2)</text>
</g>
<!-- Defender&#45;&gt;AppService -->
<g id="edge8" class="edge">
<title>Defender&#45;&gt;AppService</title>
<path fill="none" stroke="#d83b01" stroke-width="1.2" stroke-dasharray="5,2" d="M557.68,-658C632.42,-658 752,-658 752,-658 752,-658 752,-451.03 752,-451.03"/>
<polygon fill="#d83b01" stroke="#d83b01" stroke-width="1.2" points="755.5,-451.03 752,-441.03 748.5,-451.03 755.5,-451.03"/>
<text xml:space="preserve" text-anchor="middle" x="705.62" y="-575.49" font-family="Segoe UI" font-size="8.00">Security Policies</text>
</g>
<!-- ServiceFabric -->
<g id="node9" class="node">
<title>ServiceFabric</title>
<polygon fill="#0078d4" stroke="black" stroke-width="1.5" points="1098,-438.84 1008,-438.84 1004,-434.84 1004,-402.34 1094,-402.34 1098,-406.34 1098,-438.84"/>
<polyline fill="none" stroke="black" stroke-width="1.5" points="1094,-434.84 1004,-434.84"/>
<polyline fill="none" stroke="black" stroke-width="1.5" points="1094,-434.84 1094,-402.34"/>
<polyline fill="none" stroke="black" stroke-width="1.5" points="1094,-434.84 1098,-438.84"/>
<text xml:space="preserve" text-anchor="middle" x="1051" y="-425.34" font-family="Segoe UI" font-size="10.00" fill="white">Service Fabric</text>
<text xml:space="preserve" text-anchor="middle" x="1051" y="-411.09" font-family="Segoe UI" font-size="10.00" fill="white">(Clustered Mode)</text>
</g>
<!-- Defender&#45;&gt;ServiceFabric -->
<g id="edge9" class="edge">
<title>Defender&#45;&gt;ServiceFabric</title>
<path fill="none" stroke="#d83b01" stroke-width="1.2" stroke-dasharray="5,2" d="M499,-648.93C499,-608.26 499,-544 499,-544 499,-544 1017.38,-544 1017.38,-544 1017.38,-544 1017.38,-451.15 1017.38,-451.15"/>
<polygon fill="#d83b01" stroke="#d83b01" stroke-width="1.2" points="1020.88,-451.15 1017.38,-441.15 1013.88,-451.15 1020.88,-451.15"/>
<text xml:space="preserve" text-anchor="middle" x="852.62" y="-575.49" font-family="Segoe UI" font-size="8.00">Security Policies</text>
</g>
<!-- AzureVM -->
<g id="node10" class="node">
<title>AzureVM</title>
<polygon fill="#0078d4" stroke="black" stroke-width="1.5" points="681.12,-438.84 624.88,-438.84 620.88,-434.84 620.88,-402.34 677.12,-402.34 681.12,-406.34 681.12,-438.84"/>
<polyline fill="none" stroke="black" stroke-width="1.5" points="677.12,-434.84 620.88,-434.84"/>
<polyline fill="none" stroke="black" stroke-width="1.5" points="677.12,-434.84 677.12,-402.34"/>
<polyline fill="none" stroke="black" stroke-width="1.5" points="677.12,-434.84 681.12,-438.84"/>
<text xml:space="preserve" text-anchor="middle" x="651" y="-425.34" font-family="Segoe UI" font-size="10.00" fill="white">Azure VM</text>
<text xml:space="preserve" text-anchor="middle" x="651" y="-411.09" font-family="Segoe UI" font-size="10.00" fill="white">(B&#45;Series)</text>
</g>
<!-- Defender&#45;&gt;AzureVM -->
<g id="edge10" class="edge">
<title>Defender&#45;&gt;AzureVM</title>
<path fill="none" stroke="#d83b01" stroke-width="1.2" stroke-dasharray="5,2" d="M540.87,-652C579.26,-652 630.19,-652 630.19,-652 630.19,-652 630.19,-451.34 630.19,-451.34"/>
<polygon fill="#d83b01" stroke="#d83b01" stroke-width="1.2" points="633.69,-451.34 630.19,-441.34 626.69,-451.34 633.69,-451.34"/>
<text xml:space="preserve" text-anchor="middle" x="534.62" y="-575.49" font-family="Segoe UI" font-size="8.00">Security Policies</text>
</g>
<!-- Firewall&#45;&gt;AppService -->
<g id="edge1" class="edge">
<title>Firewall&#45;&gt;AppService</title>
<path fill="none" stroke="#0078d4" stroke-width="1.2" d="M923.48,-655C871.33,-655 787.38,-655 787.38,-655 787.38,-655 787.38,-596.44 787.38,-542.09"/>
<polygon fill="#0078d4" stroke="#0078d4" stroke-width="1.2" points="790.88,-542.4 787.38,-532.4 783.88,-542.4 790.88,-542.4"/>
<text xml:space="preserve" text-anchor="middle" x="980.25" y="-575.49" font-family="Segoe UI" font-size="8.00">Allow HTTPS</text>
</g>
<!-- Bastion -->
<g id="node5" class="node">
<title>Bastion</title>
<path fill="#f3f2f1" stroke="black" stroke-width="1.5" d="M694.5,-699.77C694.5,-699.77 651.5,-699.77 651.5,-699.77 645.5,-699.77 639.5,-693.77 639.5,-687.77 639.5,-687.77 639.5,-675.27 639.5,-675.27 639.5,-669.27 645.5,-663.27 651.5,-663.27 651.5,-663.27 694.5,-663.27 694.5,-663.27 700.5,-663.27 706.5,-669.27 706.5,-675.27 706.5,-675.27 706.5,-687.77 706.5,-687.77 706.5,-693.77 700.5,-699.77 694.5,-699.77"/>
<text xml:space="preserve" text-anchor="middle" x="673" y="-686.27" font-family="Segoe UI" font-size="10.00">Bastion</text>
<text xml:space="preserve" text-anchor="middle" x="673" y="-672.02" font-family="Segoe UI" font-size="10.00">(JIT Access)</text>
</g>
<!-- Monitor -->
<g id="node6" class="node">
<title>Monitor</title>
<path fill="#f3f2f1" stroke="black" stroke-width="1.5" d="M827.62,-699.77C827.62,-699.77 776.38,-699.77 776.38,-699.77 770.38,-699.77 764.38,-693.77 764.38,-687.77 764.38,-687.77 764.38,-675.27 764.38,-675.27 764.38,-669.27 770.38,-663.27 776.38,-663.27 776.38,-663.27 827.62,-663.27 827.62,-663.27 833.62,-663.27 839.62,-669.27 839.62,-675.27 839.62,-675.27 839.62,-687.77 839.62,-687.77 839.62,-693.77 833.62,-699.77 827.62,-699.77"/>
<text xml:space="preserve" text-anchor="middle" x="802" y="-686.27" font-family="Segoe UI" font-size="10.00">Log Analytics</text>
<text xml:space="preserve" text-anchor="middle" x="802" y="-672.02" font-family="Segoe UI" font-size="10.00">(All Regions)</text>
</g>
<!-- SQL -->
<g id="node11" class="node">
<title>SQL</title>
<path fill="#e5e5e5" stroke="black" stroke-width="1.5" d="M756,-275.24C756,-278.74 734.93,-281.59 709,-281.59 683.07,-281.59 662,-278.74 662,-275.24 662,-275.24 662,-218.15 662,-218.15 662,-214.65 683.07,-211.8 709,-211.8 734.93,-211.8 756,-214.65 756,-218.15 756,-218.15 756,-275.24 756,-275.24"/>
<path fill="none" stroke="black" stroke-width="1.5" d="M756,-275.24C756,-271.74 734.93,-268.9 709,-268.9 683.07,-268.9 662,-271.74 662,-275.24"/>
<text xml:space="preserve" text-anchor="middle" x="709" y="-258.57" font-family="Segoe UI" font-size="10.00">Azure SQL</text>
<text xml:space="preserve" text-anchor="middle" x="709" y="-244.32" font-family="Segoe UI" font-size="10.00">(Business Critical)</text>
<text xml:space="preserve" text-anchor="middle" x="709" y="-230.07" font-family="Segoe UI" font-size="10.00">Zone&#45;Redundant</text>
</g>
<!-- AppService&#45;&gt;SQL -->
<g id="edge4" class="edge">
<title>AppService&#45;&gt;SQL</title>
<path fill="none" stroke="#107c10" stroke-width="1.2" d="M747.81,-401.65C747.81,-401.65 747.81,-292.32 747.81,-292.32"/>
<polygon fill="#107c10" stroke="#107c10" stroke-width="1.2" points="751.31,-292.32 747.81,-282.32 744.31,-292.32 751.31,-292.32"/>
</g>
<!-- Function -->
<g id="node8" class="node">
<title>Function</title>
<polygon fill="#0078d4" stroke="black" stroke-width="1.5" points="945.75,-438.84 872.25,-438.84 868.25,-434.84 868.25,-402.34 941.75,-402.34 945.75,-406.34 945.75,-438.84"/>
<polyline fill="none" stroke="black" stroke-width="1.5" points="941.75,-434.84 868.25,-434.84"/>
<polyline fill="none" stroke="black" stroke-width="1.5" points="941.75,-434.84 941.75,-402.34"/>
<polyline fill="none" stroke="black" stroke-width="1.5" points="941.75,-434.84 945.75,-438.84"/>
<text xml:space="preserve" text-anchor="middle" x="907" y="-425.34" font-family="Segoe UI" font-size="10.00" fill="white">Function App</text>
<text xml:space="preserve" text-anchor="middle" x="907" y="-411.09" font-family="Segoe UI" font-size="10.00" fill="white">(Premium)</text>
</g>
<!-- CosmosDB -->
<g id="node15" class="node">
<title>CosmosDB</title>
<path fill="#e5e5e5" stroke="black" stroke-width="1.5" d="M1393.62,-275.24C1393.62,-278.74 1370.04,-281.59 1341,-281.59 1311.96,-281.59 1288.38,-278.74 1288.38,-275.24 1288.38,-275.24 1288.38,-218.15 1288.38,-218.15 1288.38,-214.65 1311.96,-211.8 1341,-211.8 1370.04,-211.8 1393.62,-214.65 1393.62,-218.15 1393.62,-218.15 1393.62,-275.24 1393.62,-275.24"/>
<path fill="none" stroke="black" stroke-width="1.5" d="M1393.62,-275.24C1393.62,-271.74 1370.04,-268.9 1341,-268.9 1311.96,-268.9 1288.38,-271.74 1288.38,-275.24"/>
<text xml:space="preserve" text-anchor="middle" x="1341" y="-258.57" font-family="Segoe UI" font-size="10.00">Cosmos DB</text>
<text xml:space="preserve" text-anchor="middle" x="1341" y="-244.32" font-family="Segoe UI" font-size="10.00">(Multi&#45;region Write)</text>
<text xml:space="preserve" text-anchor="middle" x="1341" y="-230.07" font-family="Segoe UI" font-size="10.00">Bounded Staleness</text>
</g>
<!-- Function&#45;&gt;CosmosDB -->
<g id="edge5" class="edge">
<title>Function&#45;&gt;CosmosDB</title>
<path fill="none" stroke="#107c10" stroke-width="1.2" d="M907,-401.59C907,-361.73 907,-273 907,-273 907,-273 1275.97,-273 1275.97,-273"/>
<polygon fill="#107c10" stroke="#107c10" stroke-width="1.2" points="1275.97,-276.5 1285.97,-273 1275.97,-269.5 1275.97,-276.5"/>
<text xml:space="preserve" text-anchor="middle" x="1348.75" y="-351.74" font-family="Segoe UI" font-size="8.00">MongoDB API</text>
</g>
<!-- SQL&#45;&gt;KeyVault -->
<g id="edge11" class="edge">
<title>SQL&#45;&gt;KeyVault</title>
<path fill="none" stroke="#505050" stroke-width="1.2" stroke-dasharray="1,5" d="M649.64,-247C649.64,-247 298,-247 298,-247 298,-247 298,-641.2 298,-641.2"/>
<polygon fill="#505050" stroke="#505050" stroke-width="1.2" points="649.64,-250.5 659.64,-247 649.64,-243.5 649.64,-250.5"/>
<polygon fill="#505050" stroke="#505050" stroke-width="1.2" points="294.5,-641.2 298,-651.2 301.5,-641.2 294.5,-641.2"/>
<text xml:space="preserve" text-anchor="middle" x="386.5" y="-418.61" font-family="Segoe UI" font-size="8.00">AKV Integration</text>
</g>
<!-- WestRegion -->
<g id="node14" class="node">
<title>WestRegion</title>
<polygon fill="none" stroke="black" stroke-width="1.5" stroke-dasharray="5,2" points="737.62,-66.15 674.38,-66.15 674.38,-29.65 743.62,-29.65 743.62,-60.15 737.62,-66.15"/>
<polyline fill="none" stroke="black" stroke-width="1.5" stroke-dasharray="5,2" points="737.62,-66.15 737.62,-60.15"/>
<polyline fill="none" stroke="black" stroke-width="1.5" stroke-dasharray="5,2" points="743.62,-60.15 737.62,-60.15"/>
<text xml:space="preserve" text-anchor="middle" x="709" y="-52.65" font-family="Segoe UI" font-size="10.00">West US</text>
<text xml:space="preserve" text-anchor="middle" x="709" y="-38.4" font-family="Segoe UI" font-size="10.00">(DR Region)</text>
</g>
<!-- SQL&#45;&gt;WestRegion -->
<g id="edge13" class="edge">
<title>SQL&#45;&gt;WestRegion</title>
<path fill="none" stroke="#8e8e8e" stroke-width="1.2" d="M709,-199.34C709,-199.34 709,-78.47 709,-78.47"/>
<polygon fill="#8e8e8e" stroke="#8e8e8e" stroke-width="1.2" points="705.5,-199.34 709,-209.34 712.5,-199.34 705.5,-199.34"/>
<polygon fill="#8e8e8e" stroke="#8e8e8e" stroke-width="1.2" points="712.5,-78.47 709,-68.47 705.5,-78.47 712.5,-78.47"/>
<text xml:space="preserve" text-anchor="middle" x="737.5" y="-161.2" font-family="Segoe UI" font-size="8.00">Geo&#45;Replication</text>
<text xml:space="preserve" text-anchor="middle" x="737.5" y="-149.95" font-family="Segoe UI" font-size="8.00">(RPO &lt; 5s)</text>
</g>
<!-- FrontDoor -->
<g id="node12" class="node">
<title>FrontDoor</title>
<polygon fill="#0078d4" stroke="black" stroke-width="1.5" points="1176.47,-57.76 1093,-79.8 1009.53,-57.76 1041.41,-22.09 1144.59,-22.09 1176.47,-57.76"/>
<text xml:space="preserve" text-anchor="middle" x="1093" y="-52.65" font-family="Segoe UI" font-size="10.00" fill="white">Azure Front Door</text>
<text xml:space="preserve" text-anchor="middle" x="1093" y="-38.4" font-family="Segoe UI" font-size="10.00" fill="white">(WAF Premium)</text>
</g>
<!-- FrontDoor&#45;&gt;AppService -->
<g id="edge3" class="edge">
<title>FrontDoor&#45;&gt;AppService</title>
<path fill="none" stroke="#0078d4" stroke-width="1.2" d="M1053.76,-70.16C1053.76,-99.11 1053.76,-146 1053.76,-146 1053.76,-146 804.83,-146 804.83,-146 804.83,-146 804.83,-389.9 804.83,-389.9"/>
<polygon fill="#0078d4" stroke="#0078d4" stroke-width="1.2" points="801.33,-389.9 804.83,-399.9 808.33,-389.9 801.33,-389.9"/>
</g>
<!-- TrafficManager -->
<g id="node13" class="node">
<title>TrafficManager</title>
<polygon fill="#0078d4" stroke="black" stroke-width="1.5" points="951.95,-57.76 877,-79.8 802.05,-57.76 830.68,-22.09 923.32,-22.09 951.95,-57.76"/>
<text xml:space="preserve" text-anchor="middle" x="877" y="-52.65" font-family="Segoe UI" font-size="10.00" fill="white">Traffic Manager</text>
<text xml:space="preserve" text-anchor="middle" x="877" y="-38.4" font-family="Segoe UI" font-size="10.00" fill="white">(Performance)</text>
</g>
<!-- Storage -->
<g id="node16" class="node">
<title>Storage</title>
<polygon fill="#e5e5e5" stroke="#0078d4" stroke-width="1.5" points="1229.88,-264.94 1226.88,-268.94 1205.88,-268.94 1202.88,-264.94 1138.12,-264.94 1138.12,-228.44 1229.88,-228.44 1229.88,-264.94"/>
<text xml:space="preserve" text-anchor="middle" x="1184" y="-251.44" font-family="Segoe UI" font-size="10.00">Storage Account</text>
<text xml:space="preserve" text-anchor="middle" x="1184" y="-237.19" font-family="Segoe UI" font-size="10.00">(ZRS &#45; Hot)</text>
</g>
<!-- Storage&#45;&gt;AppService -->
<g id="edge12" class="edge">
<title>Storage&#45;&gt;AppService</title>
<path fill="none" stroke="#505050" stroke-width="1.2" stroke-dasharray="1,5" d="M1125.65,-247C1125.65,-247 807.6,-247 807.6,-247 807.6,-247 807.6,-389.86 807.6,-389.86"/>
<polygon fill="#505050" stroke="#505050" stroke-width="1.2" points="1125.65,-250.5 1135.65,-247 1125.65,-243.5 1125.65,-250.5"/>
<polygon fill="#505050" stroke="#505050" stroke-width="1.2" points="804.1,-389.86 807.6,-399.86 811.1,-389.86 804.1,-389.86"/>
<text xml:space="preserve" text-anchor="middle" x="1193.25" y="-351.74" font-family="Segoe UI" font-size="8.00">Private Endpoint</text>
</g>
<!-- Redis -->
<g id="node17" class="node">
<title>Redis</title>
<polygon fill="#0078d4" stroke="black" stroke-width="1.5" points="1546.38,-272.07 1455.62,-272.07 1451.62,-268.07 1451.62,-221.32 1542.38,-221.32 1546.38,-225.32 1546.38,-272.07"/>
<polyline fill="none" stroke="black" stroke-width="1.5" points="1542.38,-268.07 1451.62,-268.07"/>
<polyline fill="none" stroke="black" stroke-width="1.5" points="1542.38,-268.07 1542.38,-221.32"/>
<polyline fill="none" stroke="black" stroke-width="1.5" points="1542.38,-268.07 1546.38,-272.07"/>
<text xml:space="preserve" text-anchor="middle" x="1499" y="-258.57" font-family="Segoe UI" font-size="10.00" fill="white">Azure Cache</text>
<text xml:space="preserve" text-anchor="middle" x="1499" y="-244.32" font-family="Segoe UI" font-size="10.00" fill="white">(Redis Enterprise)</text>
<text xml:space="preserve" text-anchor="middle" x="1499" y="-230.07" font-family="Segoe UI" font-size="10.00" fill="white">Clustered</text>
</g>
<!-- SystemPod1 -->
<g id="node18" class="node">
<title>SystemPod1</title>
<polygon fill="none" stroke="black" stroke-width="1.5" points="1277,-438.84 1229,-438.84 1229,-402.34 1283,-402.34 1283,-432.84 1277,-438.84"/>
<polyline fill="none" stroke="black" stroke-width="1.5" points="1277,-438.84 1277,-432.84"/>
<polyline fill="none" stroke="black" stroke-width="1.5" points="1283,-432.84 1277,-432.84"/>
<text xml:space="preserve" text-anchor="middle" x="1256" y="-425.34" font-family="Segoe UI" font-size="10.00">Ingress</text>
<text xml:space="preserve" text-anchor="middle" x="1256" y="-411.09" font-family="Segoe UI" font-size="10.00">(Nginx)</text>
</g>
<!-- SystemPod2 -->
<g id="node19" class="node">
<title>SystemPod2</title>
<polygon fill="none" stroke="black" stroke-width="1.5" points="1397.25,-438.84 1340.75,-438.84 1340.75,-402.34 1403.25,-402.34 1403.25,-432.84 1397.25,-438.84"/>
<polyline fill="none" stroke="black" stroke-width="1.5" points="1397.25,-438.84 1397.25,-432.84"/>
<polyline fill="none" stroke="black" stroke-width="1.5" points="1403.25,-432.84 1397.25,-432.84"/>
<text xml:space="preserve" text-anchor="middle" x="1372" y="-425.34" font-family="Segoe UI" font-size="10.00">DNS</text>
<text xml:space="preserve" text-anchor="middle" x="1372" y="-411.09" font-family="Segoe UI" font-size="10.00">(CoreDNS)</text>
</g>
<!-- AppPod1 -->
<g id="node20" class="node">
<title>AppPod1</title>
<polygon fill="none" stroke="black" stroke-width="1.5" points="1531,-438.59 1461,-438.59 1461,-402.59 1537,-402.59 1537,-432.59 1531,-438.59"/>
<polyline fill="none" stroke="black" stroke-width="1.5" points="1531,-438.59 1531,-432.59"/>
<polyline fill="none" stroke="black" stroke-width="1.5" points="1537,-432.59 1531,-432.59"/>
<text xml:space="preserve" text-anchor="middle" x="1499" y="-418.21" font-family="Segoe UI" font-size="10.00">Order Service</text>
</g>
<!-- AppPod1&#45;&gt;Redis -->
<g id="edge6" class="edge">
<title>AppPod1&#45;&gt;Redis</title>
<path fill="none" stroke="#107c10" stroke-width="1.2" d="M1499,-401.98C1499,-401.98 1499,-284.59 1499,-284.59"/>
<polygon fill="#107c10" stroke="#107c10" stroke-width="1.2" points="1502.5,-284.59 1499,-274.59 1495.5,-284.59 1502.5,-284.59"/>
<text xml:space="preserve" text-anchor="middle" x="1521.12" y="-351.74" font-family="Segoe UI" font-size="8.00">Cache Aside</text>
</g>
<!-- AppPod2 -->
<g id="node21" class="node">
<title>AppPod2</title>
<polygon fill="none" stroke="black" stroke-width="1.5" points="1677,-438.59 1595,-438.59 1595,-402.59 1683,-402.59 1683,-432.59 1677,-438.59"/>
<polyline fill="none" stroke="black" stroke-width="1.5" points="1677,-438.59 1677,-432.59"/>
<polyline fill="none" stroke="black" stroke-width="1.5" points="1683,-432.59 1677,-432.59"/>
<text xml:space="preserve" text-anchor="middle" x="1639" y="-418.21" font-family="Segoe UI" font-size="10.00">Payment Service</text>
</g>
<!-- ACR -->
<g id="node22" class="node">
<title>ACR</title>
<polygon fill="#0078d4" stroke="black" stroke-width="1.5" points="1840.62,-438.84 1745.38,-438.84 1741.38,-434.84 1741.38,-402.34 1836.62,-402.34 1840.62,-406.34 1840.62,-438.84"/>
<polyline fill="none" stroke="black" stroke-width="1.5" points="1836.62,-434.84 1741.38,-434.84"/>
<polyline fill="none" stroke="black" stroke-width="1.5" points="1836.62,-434.84 1836.62,-402.34"/>
<polyline fill="none" stroke="black" stroke-width="1.5" points="1836.62,-434.84 1840.62,-438.84"/>
<text xml:space="preserve" text-anchor="middle" x="1791" y="-425.34" font-family="Segoe UI" font-size="10.00" fill="white">Container Registry</text>
<text xml:space="preserve" text-anchor="middle" x="1791" y="-411.09" font-family="Segoe UI" font-size="10.00" fill="white">(Premium)</text>
</g>
<!-- User -->
<g id="node23" class="node">
<title>User</title>
<ellipse fill="none" stroke="black" stroke-width="1.5" cx="1631" cy="-246.69" rx="27" ry="18"/>
<text xml:space="preserve" text-anchor="middle" x="1631" y="-244.32" font-family="Segoe UI" font-size="10.00">User</text>
</g>
<!-- User&#45;&gt;FrontDoor -->
<g id="edge2" class="edge">
<title>User&#45;&gt;FrontDoor</title>
<path fill="none" stroke="#0078d4" stroke-width="1.2" d="M1631,-228C1631,-178.54 1631,-48 1631,-48 1631,-48 1180.47,-48 1180.47,-48"/>
<polygon fill="#0078d4" stroke="#0078d4" stroke-width="1.2" points="1180.47,-44.5 1170.47,-48 1180.47,-51.5 1180.47,-44.5"/>
</g>
<!-- Allow -->
<g id="node24" class="node">
<title>Allow</title>
<text xml:space="preserve" text-anchor="middle" x="1255" y="-679.15" font-family="Segoe UI" font-size="10.00">Allow: Solid Blue</text>
</g>
<!-- Encrypt -->
<g id="node25" class="node">
<title>Encrypt</title>
<text xml:space="preserve" text-anchor="middle" x="1423" y="-679.15" font-family="Segoe UI" font-size="10.00">Encrypted: Dashed Green</text>
</g>
<!-- PrivateLink -->
<g id="node26" class="node">
<title>PrivateLink</title>
<text xml:space="preserve" text-anchor="middle" x="1598" y="-679.15" font-family="Segoe UI" font-size="10.00">Private Link: Dotted</text>
</g>
<!-- Block -->
<g id="node27" class="node">
<title>Block</title>
<text xml:space="preserve" text-anchor="middle" x="1738" y="-679.15" font-family="Segoe UI" font-size="10.00">Deny: Red</text>
</g>
</g>
</svg>
